<svg xmlns="http://www.w3.org/2000/svg" xmlns:xlink="http://www.w3.org/1999/xlink" width="500" zoomAndPan="magnify" viewBox="0 0 375 112.499997" height="150" preserveAspectRatio="xMidYMid meet" version="1.0"><defs><g/><clipPath id="96b9ec9250"><path d="M 0.828125 0 L 374.167969 0 L 374.167969 112.003906 L 0.828125 112.003906 Z M 0.828125 0 " clip-rule="nonzero"/></clipPath><clipPath id="ab05975269"><path d="M 46.796875 14 L 115.492188 14 L 115.492188 79.53125 L 46.796875 79.53125 Z M 46.796875 14 " clip-rule="nonzero"/></clipPath><clipPath id="bd6039c2e9"><path d="M 0.828125 11 L 374.167969 11 L 374.167969 102 L 0.828125 102 Z M 0.828125 11 " clip-rule="nonzero"/></clipPath><clipPath id="17eef964d8"><rect x="0" width="375" y="0" height="91"/></clipPath><clipPath id="ceeb0ffb2e"><path d="M 106 12 L 121.511719 12 L 121.511719 33 L 106 33 Z M 106 12 " clip-rule="nonzero"/></clipPath><clipPath id="5016bb3b4d"><rect x="0" width="122" y="0" height="35"/></clipPath></defs><g clip-path="url(#96b9ec9250)"><path fill="#ffffff" d="M 0.828125 0 L 374.171875 0 L 374.171875 112.003906 L 0.828125 112.003906 Z M 0.828125 0 " fill-opacity="1" fill-rule="nonzero"/><path fill="#ffffff" d="M 0.828125 0 L 374.171875 0 L 374.171875 112.003906 L 0.828125 112.003906 Z M 0.828125 0 " fill-opacity="1" fill-rule="nonzero"/></g><g clip-path="url(#ab05975269)"><path fill="#5e17eb" d="M 88.816406 27.226562 L 112.335938 14.339844 C 113.285156 13.824219 114.492188 14.179688 115.003906 15.128906 C 115.242188 15.566406 115.300781 16.058594 115.203125 16.511719 L 108.878906 43.808594 L 113.304688 51.496094 C 113.800781 52.328125 113.582031 53.394531 112.847656 53.988281 L 93.558594 69.957031 L 86.796875 78.574219 C 86.40625 79.070312 85.832031 79.347656 85.238281 79.347656 L 76.875 79.347656 C 76.285156 79.347656 75.710938 79.070312 75.316406 78.574219 L 68.558594 69.957031 L 49.265625 53.988281 C 48.535156 53.394531 48.335938 52.328125 48.808594 51.496094 L 53.238281 43.808594 L 46.914062 16.511719 L 46.933594 16.511719 C 46.8125 16.058594 46.875 15.566406 47.109375 15.128906 C 47.644531 14.179688 48.832031 13.824219 49.78125 14.339844 L 73.300781 27.226562 Z M 88.816406 27.226562 " fill-opacity="1" fill-rule="nonzero"/></g><path fill="#8c52ff" d="M 92.691406 29.597656 L 105.597656 40.507812 L 110.359375 19.914062 Z M 56.519531 40.507812 L 69.445312 29.597656 L 51.753906 19.914062 Z M 86.246094 54.085938 L 95.832031 45.269531 C 96.625 44.519531 97.886719 44.578125 98.617188 45.390625 C 99.351562 46.179688 99.308594 47.425781 98.5 48.175781 L 89.804688 56.179688 L 92.589844 63.988281 L 104.230469 44.519531 L 88.398438 31.160156 L 73.714844 31.160156 L 57.882812 44.519531 L 69.523438 63.988281 L 72.3125 56.183594 L 63.613281 48.175781 C 62.824219 47.425781 62.765625 46.179688 63.496094 45.390625 C 64.246094 44.578125 65.492188 44.519531 66.28125 45.273438 L 75.871094 54.085938 C 76.5 54.601562 76.757812 55.472656 76.480469 56.28125 L 72.191406 68.21875 L 77.828125 75.394531 L 80.429688 75.394531 L 80.429688 73.667969 C 65.535156 64.152344 96.605469 64.15625 81.671875 73.683594 L 81.671875 75.394531 L 84.289062 75.394531 L 89.921875 68.21875 L 85.652344 56.28125 C 85.355469 55.472656 85.632812 54.601562 86.246094 54.085938 Z M 86.246094 54.085938 " fill-opacity="1" fill-rule="evenodd"/><path fill="#ffffff" d="M 106.761719 48 L 99.726562 59.738281 L 109.054688 52.011719 Z M 78.648438 71.25 C 77.617188 69.875 78.210938 68.476562 80.421875 67.050781 C 76.84375 67.832031 76.253906 69.234375 78.648438 71.25 Z M 60.746094 36.941406 L 51.753906 19.914062 L 56.519531 40.507812 Z M 101.371094 36.941406 L 110.359375 19.914062 L 105.597656 40.507812 Z M 62.390625 59.738281 L 55.351562 48 L 53.058594 52.011719 Z M 62.390625 59.738281 " fill-opacity="1" fill-rule="evenodd"/><g clip-path="url(#bd6039c2e9)"><g transform="matrix(1, 0, 0, 1, 0.000000000000000111, 11)"><g clip-path="url(#17eef964d8)"><g fill="#000000" fill-opacity="1"><g transform="translate(0.297281, 64.65627)"><g><path d="M 38.6875 -59.4375 L 38.6875 -47.546875 L 17.875 -47.546875 L 17.875 -35.734375 L 37.109375 -35.734375 L 37.109375 -23.84375 L 17.875 -23.84375 L 17.875 0 L 4.328125 0 L 4.328125 -59.4375 Z M 38.6875 -59.4375 "/></g></g></g><g fill="#000000" fill-opacity="1"><g transform="translate(41.149193, 64.65627)"><g/></g></g><g fill="#000000" fill-opacity="1"><g transform="translate(60.81733, 64.65627)"><g/></g></g><g fill="#000000" fill-opacity="1"><g transform="translate(80.485468, 64.65627)"><g/></g></g><g fill="#000000" fill-opacity="1"><g transform="translate(100.153605, 64.65627)"><g/></g></g><g fill="#000000" fill-opacity="1"><g transform="translate(119.829374, 64.65627)"><g><path d="M 59.9375 0 L 42.4375 0 L 28.390625 -20.25 L 14.34375 0 L -2.453125 0 L 20.03125 -31.984375 L 1.296875 -59.4375 L 17.4375 -59.4375 L 28.390625 -43.234375 L 39.34375 -59.4375 L 56.203125 -59.4375 L 36.75 -31.984375 Z M 59.9375 0 "/></g></g></g><g fill="#000000" fill-opacity="1"><g transform="translate(177.320845, 64.65627)"><g><path d="M 17.875 -59.4375 L 17.875 0 L 4.328125 0 L 4.328125 -59.4375 Z M 17.875 -59.4375 "/></g></g></g><g fill="#000000" fill-opacity="1"><g transform="translate(197.204942, 64.65627)"><g><path d="M 35.953125 -12.25 C 38.015625 -12.25 40.019531 -12.5625 41.96875 -13.1875 C 43.914062 -13.8125 45.34375 -14.410156 46.25 -14.984375 L 47.625 -15.921875 L 53.390625 -4.390625 C 53.191406 -4.242188 52.925781 -4.050781 52.59375 -3.8125 C 52.257812 -3.570312 51.476562 -3.128906 50.25 -2.484375 C 49.03125 -1.835938 47.722656 -1.273438 46.328125 -0.796875 C 44.929688 -0.316406 43.101562 0.113281 40.84375 0.5 C 38.59375 0.882812 36.265625 1.078125 33.859375 1.078125 C 28.335938 1.078125 23.101562 -0.273438 18.15625 -2.984375 C 13.207031 -5.703125 9.21875 -9.4375 6.1875 -14.1875 C 3.164062 -18.945312 1.65625 -24.085938 1.65625 -29.609375 C 1.65625 -33.785156 2.539062 -37.796875 4.3125 -41.640625 C 6.09375 -45.484375 8.457031 -48.773438 11.40625 -51.515625 C 14.363281 -54.253906 17.8125 -56.4375 21.75 -58.0625 C 25.695312 -59.695312 29.734375 -60.515625 33.859375 -60.515625 C 37.703125 -60.515625 41.242188 -60.054688 44.484375 -59.140625 C 47.734375 -58.234375 50.03125 -57.320312 51.375 -56.40625 L 53.390625 -55.046875 L 47.625 -43.515625 C 47.289062 -43.804688 46.785156 -44.15625 46.109375 -44.5625 C 45.429688 -44.96875 44.082031 -45.503906 42.0625 -46.171875 C 40.050781 -46.847656 38.015625 -47.1875 35.953125 -47.1875 C 32.679688 -47.1875 29.75 -46.65625 27.15625 -45.59375 C 24.5625 -44.539062 22.507812 -43.148438 21 -41.421875 C 19.488281 -39.691406 18.335938 -37.832031 17.546875 -35.84375 C 16.753906 -33.851562 16.359375 -31.820312 16.359375 -29.75 C 16.359375 -25.238281 18.050781 -21.191406 21.4375 -17.609375 C 24.820312 -14.035156 29.660156 -12.25 35.953125 -12.25 Z M 35.953125 -12.25 "/></g></g></g><g fill="#000000" fill-opacity="1"><g transform="translate(251.454413, 64.65627)"><g><path d="M 1.65625 -29.75 C 1.65625 -38.351562 4.582031 -45.628906 10.4375 -51.578125 C 16.300781 -57.535156 23.363281 -60.515625 31.625 -60.515625 C 39.9375 -60.515625 47 -57.546875 52.8125 -51.609375 C 58.625 -45.679688 61.53125 -38.394531 61.53125 -29.75 C 61.53125 -21.0625 58.671875 -13.75 52.953125 -7.8125 C 47.234375 -1.882812 40.125 1.078125 31.625 1.078125 C 22.9375 1.078125 15.769531 -1.863281 10.125 -7.75 C 4.476562 -13.632812 1.65625 -20.96875 1.65625 -29.75 Z M 16.28125 -29.75 C 16.28125 -26.632812 16.757812 -23.789062 17.71875 -21.21875 C 18.6875 -18.644531 20.367188 -16.46875 22.765625 -14.6875 C 25.171875 -12.914062 28.125 -12.03125 31.625 -12.03125 C 36.664062 -12.03125 40.472656 -13.757812 43.046875 -17.21875 C 45.617188 -20.675781 46.90625 -24.851562 46.90625 -29.75 C 46.90625 -34.601562 45.59375 -38.769531 42.96875 -42.25 C 40.351562 -45.738281 36.570312 -47.484375 31.625 -47.484375 C 26.726562 -47.484375 22.945312 -45.738281 20.28125 -42.25 C 17.613281 -38.769531 16.28125 -34.601562 16.28125 -29.75 Z M 16.28125 -29.75 "/></g></g></g><g fill="#000000" fill-opacity="1"><g transform="translate(314.637391, 64.65627)"><g><path d="M 17.875 -36.890625 L 17.875 0 L 4.328125 0 L 4.328125 -59.4375 L 17.875 -59.4375 L 41.5 -22.546875 L 41.640625 -22.546875 L 41.640625 -59.4375 L 55.1875 -59.4375 L 55.1875 0 L 41.640625 0 L 18.015625 -36.890625 Z M 17.875 -36.890625 "/></g></g></g></g></g></g><g transform="matrix(1, 0, 0, 1, 248, 75)"><g clip-path="url(#5016bb3b4d)"><g fill="#8c52ff" fill-opacity="1"><g transform="translate(1.148846, 25.700267)"><g><path d="M 11.984375 -2.984375 L 5.6875 -2.984375 L 4.6875 0 L 0.390625 0 L 6.484375 -16.859375 L 11.234375 -16.859375 L 17.34375 0 L 13 0 Z M 10.921875 -6.140625 L 8.84375 -12.3125 L 6.765625 -6.140625 Z M 10.921875 -6.140625 "/></g></g></g><g fill="#8c52ff" fill-opacity="1"><g transform="translate(18.847076, 25.700267)"><g><path d="M 0.671875 -6.703125 C 0.671875 -8.097656 0.953125 -9.3125 1.515625 -10.34375 C 2.085938 -11.382812 2.878906 -12.1875 3.890625 -12.75 C 4.910156 -13.3125 6.078125 -13.59375 7.390625 -13.59375 C 9.078125 -13.59375 10.484375 -13.148438 11.609375 -12.265625 C 12.734375 -11.390625 13.472656 -10.148438 13.828125 -8.546875 L 9.46875 -8.546875 C 9.09375 -9.578125 8.378906 -10.09375 7.328125 -10.09375 C 6.578125 -10.09375 5.972656 -9.796875 5.515625 -9.203125 C 5.066406 -8.617188 4.84375 -7.785156 4.84375 -6.703125 C 4.84375 -5.609375 5.066406 -4.769531 5.515625 -4.1875 C 5.972656 -3.601562 6.578125 -3.3125 7.328125 -3.3125 C 8.378906 -3.3125 9.09375 -3.820312 9.46875 -4.84375 L 13.828125 -4.84375 C 13.472656 -3.28125 12.726562 -2.050781 11.59375 -1.15625 C 10.457031 -0.257812 9.054688 0.1875 7.390625 0.1875 C 6.078125 0.1875 4.910156 -0.0859375 3.890625 -0.640625 C 2.878906 -1.203125 2.085938 -2.003906 1.515625 -3.046875 C 0.953125 -4.085938 0.671875 -5.304688 0.671875 -6.703125 Z M 0.671875 -6.703125 "/></g></g></g><g fill="#8c52ff" fill-opacity="1"><g transform="translate(33.375476, 25.700267)"><g><path d="M 0.671875 -6.71875 C 0.671875 -8.101562 0.929688 -9.3125 1.453125 -10.34375 C 1.972656 -11.382812 2.679688 -12.1875 3.578125 -12.75 C 4.472656 -13.3125 5.472656 -13.59375 6.578125 -13.59375 C 7.523438 -13.59375 8.351562 -13.398438 9.0625 -13.015625 C 9.78125 -12.628906 10.332031 -12.125 10.71875 -11.5 L 10.71875 -13.40625 L 14.8125 -13.40625 L 14.8125 0 L 10.71875 0 L 10.71875 -1.890625 C 10.3125 -1.265625 9.75 -0.757812 9.03125 -0.375 C 8.320312 0 7.5 0.1875 6.5625 0.1875 C 5.46875 0.1875 4.472656 -0.09375 3.578125 -0.65625 C 2.679688 -1.226562 1.972656 -2.035156 1.453125 -3.078125 C 0.929688 -4.128906 0.671875 -5.34375 0.671875 -6.71875 Z M 10.71875 -6.703125 C 10.71875 -7.722656 10.429688 -8.53125 9.859375 -9.125 C 9.285156 -9.71875 8.59375 -10.015625 7.78125 -10.015625 C 6.96875 -10.015625 6.273438 -9.722656 5.703125 -9.140625 C 5.128906 -8.554688 4.84375 -7.75 4.84375 -6.71875 C 4.84375 -5.695312 5.128906 -4.882812 5.703125 -4.28125 C 6.273438 -3.6875 6.96875 -3.390625 7.78125 -3.390625 C 8.59375 -3.390625 9.285156 -3.679688 9.859375 -4.265625 C 10.429688 -4.859375 10.71875 -5.671875 10.71875 -6.703125 Z M 10.71875 -6.703125 "/></g></g></g><g fill="#8c52ff" fill-opacity="1"><g transform="translate(49.680899, 25.700267)"><g><path d="M 0.671875 -6.71875 C 0.671875 -8.101562 0.929688 -9.3125 1.453125 -10.34375 C 1.972656 -11.382812 2.679688 -12.1875 3.578125 -12.75 C 4.472656 -13.3125 5.472656 -13.59375 6.578125 -13.59375 C 7.460938 -13.59375 8.269531 -13.40625 9 -13.03125 C 9.726562 -12.664062 10.300781 -12.171875 10.71875 -11.546875 L 10.71875 -17.765625 L 14.8125 -17.765625 L 14.8125 0 L 10.71875 0 L 10.71875 -1.921875 C 10.332031 -1.273438 9.78125 -0.757812 9.0625 -0.375 C 8.351562 0 7.523438 0.1875 6.578125 0.1875 C 5.472656 0.1875 4.472656 -0.09375 3.578125 -0.65625 C 2.679688 -1.226562 1.972656 -2.035156 1.453125 -3.078125 C 0.929688 -4.128906 0.671875 -5.34375 0.671875 -6.71875 Z M 10.71875 -6.703125 C 10.71875 -7.722656 10.429688 -8.53125 9.859375 -9.125 C 9.285156 -9.71875 8.59375 -10.015625 7.78125 -10.015625 C 6.96875 -10.015625 6.273438 -9.722656 5.703125 -9.140625 C 5.128906 -8.554688 4.84375 -7.75 4.84375 -6.71875 C 4.84375 -5.695312 5.128906 -4.882812 5.703125 -4.28125 C 6.273438 -3.6875 6.96875 -3.390625 7.78125 -3.390625 C 8.59375 -3.390625 9.285156 -3.679688 9.859375 -4.265625 C 10.429688 -4.859375 10.71875 -5.671875 10.71875 -6.703125 Z M 10.71875 -6.703125 "/></g></g></g><g fill="#8c52ff" fill-opacity="1"><g transform="translate(65.986323, 25.700267)"><g><path d="M 14.125 -6.921875 C 14.125 -6.535156 14.097656 -6.132812 14.046875 -5.71875 L 4.75 -5.71875 C 4.8125 -4.882812 5.078125 -4.242188 5.546875 -3.796875 C 6.023438 -3.359375 6.609375 -3.140625 7.296875 -3.140625 C 8.328125 -3.140625 9.039062 -3.570312 9.4375 -4.4375 L 13.8125 -4.4375 C 13.582031 -3.5625 13.175781 -2.769531 12.59375 -2.0625 C 12.007812 -1.363281 11.273438 -0.8125 10.390625 -0.40625 C 9.515625 -0.0078125 8.53125 0.1875 7.4375 0.1875 C 6.125 0.1875 4.957031 -0.0859375 3.9375 -0.640625 C 2.914062 -1.203125 2.113281 -2.003906 1.53125 -3.046875 C 0.957031 -4.085938 0.671875 -5.304688 0.671875 -6.703125 C 0.671875 -8.097656 0.953125 -9.3125 1.515625 -10.34375 C 2.085938 -11.382812 2.882812 -12.1875 3.90625 -12.75 C 4.9375 -13.3125 6.113281 -13.59375 7.4375 -13.59375 C 8.738281 -13.59375 9.894531 -13.316406 10.90625 -12.765625 C 11.914062 -12.222656 12.703125 -11.445312 13.265625 -10.4375 C 13.835938 -9.4375 14.125 -8.265625 14.125 -6.921875 Z M 9.921875 -8 C 9.921875 -8.695312 9.679688 -9.253906 9.203125 -9.671875 C 8.722656 -10.085938 8.117188 -10.296875 7.390625 -10.296875 C 6.703125 -10.296875 6.125 -10.097656 5.65625 -9.703125 C 5.1875 -9.304688 4.894531 -8.738281 4.78125 -8 Z M 9.921875 -8 "/></g></g></g><g fill="#8c52ff" fill-opacity="1"><g transform="translate(80.778877, 25.700267)"><g><path d="M 18.59375 -13.546875 C 20.25 -13.546875 21.570312 -13.039062 22.5625 -12.03125 C 23.550781 -11.019531 24.046875 -9.617188 24.046875 -7.828125 L 24.046875 0 L 19.953125 0 L 19.953125 -7.28125 C 19.953125 -8.144531 19.722656 -8.8125 19.265625 -9.28125 C 18.816406 -9.75 18.191406 -9.984375 17.390625 -9.984375 C 16.585938 -9.984375 15.957031 -9.75 15.5 -9.28125 C 15.039062 -8.8125 14.8125 -8.144531 14.8125 -7.28125 L 14.8125 0 L 10.734375 0 L 10.734375 -7.28125 C 10.734375 -8.144531 10.503906 -8.8125 10.046875 -9.28125 C 9.585938 -9.75 8.960938 -9.984375 8.171875 -9.984375 C 7.367188 -9.984375 6.738281 -9.75 6.28125 -9.28125 C 5.820312 -8.8125 5.59375 -8.144531 5.59375 -7.28125 L 5.59375 0 L 1.484375 0 L 1.484375 -13.40625 L 5.59375 -13.40625 L 5.59375 -11.71875 C 6.007812 -12.28125 6.550781 -12.722656 7.21875 -13.046875 C 7.894531 -13.378906 8.660156 -13.546875 9.515625 -13.546875 C 10.515625 -13.546875 11.410156 -13.328125 12.203125 -12.890625 C 13.003906 -12.460938 13.628906 -11.847656 14.078125 -11.046875 C 14.535156 -11.785156 15.164062 -12.382812 15.96875 -12.84375 C 16.769531 -13.3125 17.644531 -13.546875 18.59375 -13.546875 Z M 18.59375 -13.546875 "/></g></g></g><g clip-path="url(#ceeb0ffb2e)"><g fill="#8c52ff" fill-opacity="1"><g transform="translate(106.209581, 25.700267)"><g><path d="M 15.171875 -13.40625 L 6.765625 6.359375 L 2.359375 6.359375 L 5.421875 -0.453125 L -0.03125 -13.40625 L 4.5625 -13.40625 L 7.65625 -5.015625 L 10.734375 -13.40625 Z M 15.171875 -13.40625 "/></g></g></g></g></g></g></svg>